<svg xmlns="http://www.w3.org/2000/svg" viewBox="0 0 512 512"><defs><linearGradient id="pcm" x1="100" x2="240" y1="100" y2="240" gradientUnits="userSpaceOnUse"><stop offset="0" stop-color="#fde68a"/><stop offset="1" stop-color="#fbbf24"/></linearGradient><linearGradient id="pcc" x1="180" x2="380" y1="240" y2="400" gradientUnits="userSpaceOnUse"><stop offset="0" stop-color="#f3f4f6"/><stop offset="1" stop-color="#9ca3af"/></linearGradient></defs><path fill="url(#pcm)" stroke="#f59e0b" stroke-width="5" stroke-linejoin="round" d="M226 210c-58 0-105-47-105-105 0-19 5-37 14-52-46 11-80 53-80 102 0 58 47 105 105 105 49 0 91-34 102-80-12 6-23 9-36 9z"><animateTransform attributeName="transform" type="rotate" values="-4 168 158;4 168 158;-4 168 158" dur="6s" repeatCount="indefinite"/></path><path fill="url(#pcc)" stroke="#6b7280" stroke-width="6" stroke-linejoin="round" d="M170 360c0-30 24-54 54-54 6 0 11 1 16 3 9-32 39-55 73-55 42 0 76 34 76 76 0 4 0 8-1 12 24 6 41 27 41 53 0 30-24 54-54 54H190c-24 0-44-20-44-44 0-20 14-38 33-43-6-1-9-1-9-2z"><animateTransform attributeName="transform" type="translate" values="0 0;6 0;0 0" dur="7s" repeatCount="indefinite"/></path></svg>